<svg xmlns="http://www.w3.org/2000/svg" xmlns:xlink="http://www.w3.org/1999/xlink" xmlns:fi="http://pattern.flaticon.com/" x="0" y="0" width="2400" height="1200" viewBox="0 0 3294.117647058824 1647.058823529412"><rect x="0px" y="0px" width="100%" height="100%" opacity="0.68" fill="#fffbfb"/><defs><g transform="matrix(0.0934494856030907 -0.037824790524552336 0.037824790524552336 0.0934494856030907 151.52094506045748 168.24955387614335)" id="L1_140"><path d="m470 180h-140.644531c.445312-4.933594.6875-9.929688.6875-14.980469 0-90.992187-74.03125-165.019531-165.023438-165.019531-28.984375 0-57.496093 7.625-82.453125 22.046875-4.78125 2.761719-6.417968 8.878906-3.65625 13.660156 2.765625 4.785157 8.882813 6.417969 13.664063 3.65625 21.917969-12.667969 46.96875-19.363281 72.445312-19.363281 79.964844 0 145.023438 65.054688 145.023438 145.019531 0 79.964844-65.058594 145.023438-145.023438 145.023438-33.472656 0-64.917969-11.089844-90.9375-32.066407-2.609375-2.101562-6.066406-2.730468-9.214843-1.765624l-26.542969 6.941406 10.398437-22.851563c1.496094-3.28125 1.105469-7.109375-1.015625-10.027343-18.125-24.894532-27.707031-54.375-27.707031-85.253907 0-25.542969 6.730469-50.65625 19.464844-72.621093 2.769531-4.78125 1.140625-10.898438-3.636719-13.667969s-10.894531-1.144531-13.667969 3.636719c-14.496094 25.007812-22.160156 53.589843-22.160156 82.652343 0 33.160157 9.714844 64.914063 28.152344 92.199219l-16.742188 36.785156c-1.601562 3.511719-1.035156 7.628906 1.449219 10.582032 2.484375 2.953124 6.445313 4.210937 10.179687 3.234374l42.527344-11.117187c28.507813 21.535156 63.621094 33.339844 99.453125 33.339844 7.800781 0 15.46875-.558594 22.980469-1.609375v87.566406c0 23.15625 18.839844 42 41.996094 42h141.433594l63.238281 51.738281c1.820312 1.492188 4.066406 2.257813 6.332031 2.257813 1.457031 0 2.917969-.316406 4.28125-.960938 3.492188-1.65625 5.71875-5.171875 5.71875-9.039062v-43.996094h19c23.160156 0 42-18.84375 42-42v-194c0-23.160156-18.839844-42-42-42zm22 236c0 12.128906-9.867188 22-22 22h-29c-5.523438 0-10 4.476562-10 10v32.894531l-49.390625-40.410156c-2.722656-2.484375-5.105469-2.484375-10.460937-2.484375h-141.152344c-12.128906 0-21.996094-9.871094-21.996094-22v-91.648438c59.152344-15.972656 105.238281-64.074218 118.296875-124.351562h143.703125c12.132812 0 22 9.867188 22 22zm0 0" fill="#667529"/><path d="m399.761719 348.605469c3.390625-1.597657 5.742187-5.039063 5.742187-9.039063 0-5.519531-4.476562-10-10-10h-4.09375l-32.25-73.5c-1.597656-3.636718-5.191406-5.984375-9.160156-5.984375s-7.5625 2.347657-9.15625 5.984375l-32.25 73.5h-4.09375c-5.523438 0-10 4.480469-10 10 0 4 2.351562 7.441406 5.742188 9.039063l-12.011719 27.375c-2.21875 5.058593.082031 10.957031 5.136719 13.175781 5.058593 2.21875 10.957031-.082031 13.175781-5.140625l15.117187-34.449219h56.683594l15.117188 34.449219c1.644531 3.75 5.3125 5.984375 9.164062 5.984375 1.339844 0 2.703125-.269531 4.011719-.84375 5.054687-2.21875 7.359375-8.117188 5.136719-13.175781zm-69.328125-19.039063 19.566406-44.59375 19.566406 44.59375zm0 0" fill="#667529"/><path d="m55.402344 65.398438c2.628906 0 5.207031-1.070313 7.070312-2.929688 1.859375-1.859375 2.929688-4.4375 2.929688-7.070312 0-2.628907-1.070313-5.207032-2.929688-7.070313-1.863281-1.859375-4.441406-2.929687-7.070312-2.929687-2.640625 0-5.210938 1.070312-7.070313 2.929687-1.859375 1.863281-2.929687 4.441406-2.929687 7.070313 0 2.632812 1.070312 5.210937 2.929687 7.070312 1.859375 1.863281 4.4375 2.929688 7.070313 2.929688zm0 0" fill="#667529"/><path d="m105.328125 225.878906c-4.84375 2.65625-6.617187 8.734375-3.960937 13.578125 1.820312 3.316407 5.246093 5.195313 8.777343 5.195313 1.625 0 3.273438-.398438 4.800781-1.234375 22.300782-12.230469 39.457032-31.253907 49.492188-53.6875 10.039062 22.433593 27.191406 41.457031 49.492188 53.6875 1.527343.835937 3.175781 1.234375 4.800781 1.234375 3.53125 0 6.957031-1.878906 8.777343-5.195313 2.65625-4.84375.882813-10.921875-3.960937-13.578125-26.105469-14.316406-43.675781-39.902344-48.039063-68.8125h44.398438c5.523438 0 10-4.476562 10-10 0-5.523437-4.476562-10-10-10h-45.46875v-41.671875c0-5.523437-4.476562-10-10-10s-10 4.476563-10 10v41.671875h-36.125c-5.523438 0-10 4.476563-10 10 0 5.523438 4.476562 10 10 10h35.054688c-4.363282 28.910156-21.933594 54.5-48.039063 68.8125zm0 0" fill="#667529"/></g><g transform="matrix(0.11718933284282684 0 0 0.11718933284282684 -20 68.00000210288465)" id="L1_142"><path d="M511.005,279.646c-4.597-46.238-25.254-89.829-58.168-122.744    c-28.128-28.127-62.556-46.202-98.782-54.239V77.255c14.796-3.681,25.794-17.074,25.794-32.993c0-18.748-15.252-34-34-34h-72    c-18.748,0-34,15.252-34,34c0,15.918,10.998,29.311,25.793,32.993v25.479c-36.115,8.071-70.429,26.121-98.477,54.169    c-6.138,6.138-11.798,12.577-16.979,19.269c-0.251-0.019-0.502-0.038-0.758-0.038H78.167c-5.522,0-10,4.477-10,10s4.478,10,10,10    h58.412c-7.332,12.275-13.244,25.166-17.744,38.436H10c-5.522,0-10,4.477-10,10s4.478,10,10,10h103.184    c-2.882,12.651-4.536,25.526-4.963,38.437H64c-5.522,0-10,4.477-10,10s4.478,10,10,10h44.54    c0.844,12.944,2.925,25.82,6.244,38.437H50c-5.522,0-10,4.477-10,10s4.478,10,10,10h71.166    c9.81,25.951,25.141,50.274,45.999,71.132c32.946,32.946,76.582,53.608,122.868,58.181c6.606,0.652,13.217,0.975,19.819,0.975    c39.022,0,77.548-11.293,110.238-32.581c4.628-3.014,5.937-9.209,2.923-13.837s-9.209-5.937-13.837-2.923    c-71.557,46.597-167.39,36.522-227.869-23.957c-70.962-70.962-70.962-186.425,0-257.388c70.961-70.961,186.424-70.961,257.387,0    c60.399,60.4,70.529,156.151,24.086,227.673c-3.008,4.632-1.691,10.826,2.94,13.833c4.634,3.008,10.826,1.691,13.833-2.941    C504.367,371.396,515.537,325.241,511.005,279.646z M259.849,44.263c0-7.72,6.28-14,14-14h72c7.72,0,14,6.28,14,14s-6.28,14-14,14    h-1.794h-68.413h-1.793C266.129,58.263,259.849,51.982,259.849,44.263z M285.642,99.296V78.263h48.413v20.997    C317.979,97.348,301.715,97.36,285.642,99.296z" id="XMLID_389_" fill="#a17c6f"/><path d="M445.77,425.5c-2.64,0-5.21,1.07-7.069,2.93c-1.87,1.86-2.931,4.44-2.931,7.07    c0,2.63,1.061,5.21,2.931,7.07c1.859,1.87,4.43,2.93,7.069,2.93c2.63,0,5.2-1.06,7.07-2.93c1.86-1.86,2.93-4.44,2.93-7.07    c0-2.63-1.069-5.21-2.93-7.07C450.97,426.57,448.399,425.5,445.77,425.5z" id="XMLID_391_" fill="#a17c6f"/><path d="M310.001,144.609c-85.538,0-155.129,69.59-155.129,155.129s69.591,155.129,155.129,155.129    s155.129-69.59,155.129-155.129S395.539,144.609,310.001,144.609z M310.001,434.867c-74.511,0-135.129-60.619-135.129-135.129    s60.618-135.129,135.129-135.129S445.13,225.228,445.13,299.738S384.512,434.867,310.001,434.867z" id="XMLID_394_" fill="#a17c6f"/><path d="M373.257,222.34l-49.53,49.529c-4.142-2.048-8.801-3.205-13.726-3.205c-4.926,0-9.584,1.157-13.726,3.205    l-22.167-22.167c-3.906-3.905-10.236-3.905-14.143,0c-3.905,3.905-3.905,10.237,0,14.142l22.167,22.167    c-2.049,4.142-3.205,8.801-3.205,13.726c0,17.134,13.939,31.074,31.074,31.074s31.074-13.94,31.074-31.074    c0-4.925-1.157-9.584-3.205-13.726l48.076-48.076v0l1.453-1.453c3.905-3.905,3.905-10.237,0-14.142    S377.164,218.435,373.257,222.34z M310.001,310.812c-6.106,0-11.074-4.968-11.074-11.074s4.968-11.074,11.074-11.074    s11.074,4.968,11.074,11.074S316.107,310.812,310.001,310.812z" id="XMLID_397_" fill="#a17c6f"/><path d="M416.92,289.86h-9.265c-5.522,0-10,4.477-10,10s4.478,10,10,10h9.265c5.522,0,10-4.477,10-10    S422.442,289.86,416.92,289.86z" id="XMLID_398_" fill="#a17c6f"/><path d="M212.346,289.616h-9.264c-5.522,0-10,4.477-10,10s4.478,10,10,10h9.264c5.522,0,10-4.477,10-10    S217.868,289.616,212.346,289.616z" id="XMLID_399_" fill="#a17c6f"/><path d="M310.123,212.083c5.522,0,10-4.477,10-10v-9.264c0-5.523-4.478-10-10-10s-10,4.477-10,10v9.264    C300.123,207.606,304.601,212.083,310.123,212.083z" id="XMLID_400_" fill="#a17c6f"/><path d="M309.879,387.393c-5.522,0-10,4.477-10,10v9.264c0,5.523,4.478,10,10,10s10-4.477,10-10v-9.264    C319.879,391.87,315.401,387.393,309.879,387.393z" id="XMLID_424_" fill="#a17c6f"/><path d="M10,351.44c-2.63,0-5.21,1.07-7.07,2.93c-1.86,1.86-2.93,4.44-2.93,7.07c0,2.64,1.069,5.21,2.93,7.07    s4.44,2.93,7.07,2.93s5.21-1.07,7.069-2.93c1.86-1.86,2.931-4.44,2.931-7.07s-1.07-5.21-2.931-7.07    C15.21,352.51,12.63,351.44,10,351.44z" id="XMLID_425_" fill="#a17c6f"/></g><g transform="matrix(0.07803948161989561 -0.06096834738000621 0.06096834738000621 0.07803948161989561 -22.01119590101184 287.6203312979181)" id="L1_143"><path d="m485.183594 174.921875c.3125-.652344.550781-1.335937.714844-2.042969 5.515624-23.796875-5.699219-39.777344-15.359376-47.347656-2.191406-17.847656-19.015624-29.265625-32.785156-34.777344-1.402344-16.8125-7.785156-30.464844-19.03125-40.65625-18.40625-16.675781-44.777344-18.925781-57.671875-18.925781-.132812 0-.261719 0-.394531 0-12.5625-21.472656-41.308594-22.464844-58.070312-19.351563-9.832032-3.359374-19.746094-6.03125-29.5-7.957031-5.433594-1.070312-10.71875 2.460938-11.792969 7.902344-1.074219 5.4375 2.464843 10.71875 7.90625 11.792969 9.683593 1.914062 19.566406 4.644531 29.359375 8.117187 1.816406.648438 3.777344.753907 5.652344.3125.335937-.078125 33.464843-7.609375 40.730468 12.839844 1.542969 4.332031 5.847656 7.058594 10.425782 6.628906.316406-.03125 31.933593-2.808593 49.933593 13.574219 6.332031 5.765625 10.242188 13.203125 11.839844 22.566406-13.542969.648438-34.667969 5.40625-45.664063 27.179688-2.5 4.949218-.519531 10.984375 4.429688 13.488281 1.453125.730469 3 1.078125 4.519531 1.078125 3.667969 0 7.203125-2.015625 8.96875-5.511719 9.257813-18.320312 32.261719-16.480469 36.4375-15.980469 3.710938 1.21875 25.722657 9.066407 24.835938 22.519532-.261719 3.984375 1.863281 7.746094 5.414062 9.578125.035157.015625 3.597657 2.019531 6.6875 6.226562 4.058594 5.523438 5.390625 12.308594 3.976563 20.191407l-.675782.898437c-15.582031 1.710937-39.015624 11.515625-42.214843 40.5-.605469 5.511719 3.367187 10.472656 8.878906 11.082031.375.039063.746094.058594 1.113281.058594 5.050782 0 9.398438-3.800781 9.964844-8.9375 2.027344-18.367188 17.800781-22.019531 24.601562-22.738281 43.988282 32.265625 12.9375 107.511719 10.882813 112.335937-10.890625 20.820313-24.558594 31.472656-41.691406 32.445313-7.34375-6.136719-26.570313-19.78125-60.171875-27.832031-5.394532-1.292969-10.8125 2.03125-12.105469 7.421874-1.289063 5.394532 2.03125 10.8125 7.425781 12.101563 28.710938 6.878906 45.101563 18.179687 51.148438 23.039063-.078125 2.753906-.441406 5.476562-1.109375 8.121093-7.140625 28.367188-45.535157 43.246094-85.589844 33.160157-6.628906-1.671876-13.050781-3.972657-19.085937-6.84375-2.96875-1.414063-6.441407-1.28125-9.296876.351562-2.851562 1.628906-4.726562 4.558594-5.015624 7.832031-1.148438 12.996094-.589844 25.515625 1.652343 37.351563l-26.359375 4.382812c-1.125-3.992187-2.253906-8.660156-3.476562-13.734375-5.890625-24.394531-14.398438-59.585937-39.414063-88.460937 20.824219-5.070313 40.859375-8.417969 59.742188-9.96875 5.527343-.453125 9.640625-5.300782 9.183593-10.824219-.453124-5.527344-5.304687-9.632813-10.824218-9.183594-24.957032 2.046875-51.714844 7.039063-79.542969 14.832031-25.511719 3.453126-43.378906 2.070313-45.378906 1.894532-43.515625-6.539063-55.667969-32.832032-52.839844-53.390625.453125-3.292969-.753906-6.597657-3.222656-8.824219s-5.875-3.085938-9.105469-2.296875l-7.277344 1.78125c-12.691406-.628906-44.414062-5.542969-58.691406-22.167969-6.203125-7.226562-8.578125-15.953125-7.253906-26.679687.507812-4.140625-1.59375-8.164063-5.28125-10.105469-.042969-.023438-4.316406-2.597656-5.367188-7.132812-1.25-5.402344 2.375-11.871094 5.636719-16.34375 1.972656-2.707032 2.464844-6.222657 1.3125-9.367188-.078125-.210938-7.480469-21.566406.972656-39.292969 4.703125-9.863281 13.71875-17.136719 26.800781-21.613281 3.789063-1.296875 6.4375-4.652344 6.75-8.644531.011719-.128907 1.289063-12.859375 10.5625-19.773438 6.40625-4.773437 15.648438-5.996093 27.464844-3.632812 2.679688.53125 5.457032-.042969 7.699219-1.601563s3.753906-3.960937 4.183594-6.660156c.035156-.21875 4.53125-21.109375 43.699219-21.851562 5.941406 8.113281 19.050781 29.429687 9.324218 48.527343-2.515625 4.941407-.546875 10.988281 4.390625 13.503907 1.460938.742187 3.015625 1.09375 4.546875 1.09375 3.65625 0 7.183594-2.003907 8.957032-5.484376 3.617187-7.105468 5.28125-14.230468 5.625-21.109374 5.417968-2.304688 13.855468-4.78125 20.589843-2.777344 4.378907 1.296875 7.746094 4.476562 10.296875 9.710937 1.738282 3.570313 5.3125 5.644531 9.035156 5.644531 1.472657 0 2.972657-.328124 4.390626-1.019531 4.984374-2.425781 7.054687-8.4375 4.625-13.421875-5.011719-10.28125-12.835938-17.253906-22.632813-20.164062-10.433594-3.097656-21.050781-1.121094-28.90625 1.527344-2.621094-8.960938-6.742187-16.746094-10.367187-22.476563 4.726562-2.058594 11.109374-4.457031 18.96875-6.523437 5.363281-1.40625 8.570312-6.898438 7.160156-12.257813-1.410156-5.367187-6.902344-8.566406-12.261719-7.160156-15.867187 4.167969-26.738281 9.589843-31.558594 12.28125-40.660156.007812-56.378906 17.769531-62.296875 29.269531-14.011718-1.324219-25.8125 1.578125-35.171875 8.660156-10.910156 8.253906-15.378906 20.132813-17.175781 27.46875-15.425781 6.460938-26.453125 16.480469-32.824219 29.839844-9.246093 19.394531-5.683593 40.261719-3.242187 49.710938-6.140625 9.910156-8.199219 19.46875-6.113282 28.46875 1.765626 7.632812 6.128907 12.941406 9.804688 16.230468-.464844 13.90625 3.699219 26.074219 12.421875 36.234375 21.625 25.175781 64.726563 28.695313 73.238281 29.148438 2.191406 27.996093 23.503906 55.621093 70.457032 62.570312.148437.023438.300781.042969.453124.058594.417969.042969 5.617188.550781 14.402344.550781 7.976563 0 18.921875-.421875 31.925782-2 27.695312 26.179688 36.285156 61.707032 42.609374 87.914063 2.304688 9.539062 4.292969 17.78125 6.886719 24.132812 1.558594 3.820313 5.265625 6.242188 9.289063 6.242188.546875 0 1.097656-.042969 1.652344-.136719l45.425781-7.558594c2.828125-.472656 5.320312-2.128906 6.847656-4.554687s1.945313-5.390625 1.144531-8.144531c-2.476562-8.542969-3.820312-17.640626-4.019531-27.179688 2.945313.984375 5.941406 1.855469 8.96875 2.617188 24.082031 6.0625 48.601563 4.746093 69.046875-3.710938 21.476562-8.882812 36.007812-24.515625 40.917969-44.015625.675781-2.695313 1.148437-5.4375 1.429687-8.207031 17.136719-2.382813 37.765625-12.582032 53.582032-43.046875.09375-.179688.179687-.359375.261718-.542969.433594-.972656 10.664063-24.199219 13.65625-52.523438 3.695313-35.003906-5.273437-62.601562-26.007812-80.523437zm0 0" fill="#607d69"/><path d="m233.519531 145.421875c.105469.582031 2.714844 14.417969 12.3125 27.996094 2.289063 3.238281 5.09375 6.621093 8.484375 9.863281-1.804687 10.3125-17.578125 15.957031-17.949218 16.085938-5.234376 1.785156-8.039063 7.46875-6.273438 12.710937 1.414062 4.191406 5.320312 6.835937 9.511719 6.835937 1.066406 0 2.148437-.171874 3.210937-.53125 9.28125-3.128906 22.765625-10.921874 28.730469-23.445312 7.804687 3.523438 17.214844 5.804688 28.515625 5.804688.71875 0 1.449219-.011719 2.183594-.027344 5.542968-.144532 9.921875-4.75 9.777344-10.292969-.136719-5.457031-4.601563-9.785156-10.03125-9.785156-.085938 0-.171876.003906-.257813.003906-40.28125 1.011719-48.132813-37.109375-48.472656-38.859375-1.011719-5.433594-6.230469-9.035156-11.671875-8.035156-5.453125.992187-9.066406 6.222656-8.070313 11.675781zm0 0" fill="#607d69"/><path d="m355.914062 233.570312c17.429688-30.457031 10.546876-54.007812 1.707032-68.402343-9.339844-15.199219-22.796875-23.207031-23.363282-23.539063-4.769531-2.796875-10.875-1.203125-13.695312 3.546875-2.820312 4.753907-1.246094 10.902344 3.492188 13.746094.101562.058594 10.175781 6.183594 16.800781 17.324219 8.363281 14.0625 7.5625 29.992187-2.371094 47.351562-2.753906 4.8125-1.082031 10.945313 3.730469 13.699219 1.570312.902344 3.285156 1.328125 4.972656 1.328125 3.488281 0 6.871094-1.8125 8.726562-5.054688zm0 0" fill="#607d69"/><path d="m462.316406 257.035156c4.511719-3.222656 5.558594-9.492187 2.335938-14.003906s-9.492188-5.558594-14.003906-2.335938c-9.789063 6.992188-18.695313 9.621094-26.472657 7.808594-11.71875-2.722656-18.375-14.753906-18.53125-15.035156-2.578125-4.878906-8.613281-6.761719-13.515625-4.207031-4.917968 2.566406-6.824218 8.628906-4.257812 13.542969.394531.753906 9.09375 17.078124 26.464844 23.640624-3.109376 12.28125-5.089844 33.953126 13.058593 49.128907 1.878907 1.570312 4.160157 2.339843 6.433594 2.339843 2.871094 0 5.71875-1.226562 7.707031-3.597656 3.554688-4.253906 2.992188-10.585937-1.261718-14.144531-11.078126-9.265625-7.964844-24.46875-5.78125-31.351563 9.066406-1.109374 18.378906-5.039062 27.824218-11.785156zm0 0" fill="#607d69"/><path d="m166.761719 192.5625c-.695313-5.5-5.71875-9.386719-11.222657-8.695312-5.5.695312-9.394531 5.722656-8.695312 11.222656 1.742188 13.738281-9.035156 23.738281-15.417969 28.375-16.066406-7.953125-34.058593-4.921875-34.953125-4.765625-5.441406.960937-9.0625 6.140625-8.125 11.585937.9375 5.445313 6.125 9.105469 11.574219 8.195313.171875-.03125 17.117187-2.746094 27.257813 6.042969 5.789062 5.019531 8.589843 13.414062 8.320312 24.949218-.128906 5.542969 4.261719 10.140625 9.804688 10.269532.078124.003906.15625.003906.238281.003906 5.433593 0 9.902343-4.339844 10.03125-9.804688.316406-13.5-2.558594-24.609375-8.554688-33.171875 9.839844-8.167969 22.429688-23.011719 19.742188-44.207031zm0 0" fill="#607d69"/><path d="m72.355469 139.933594c-1.089844 2.609375-2.746094 4.945312-4.835938 7.070312-5.445312 5.550782-12.28125 7.613282-12.539062 7.691406-5.3125 1.472657-8.449219 6.957032-7.011719 12.289063 1.207031 4.476563 5.261719 7.425781 9.683594 7.425781.867187 0 1.746094-.113281 2.625-.351562.632812-.171875 13.242187-3.691406 22.980468-14.519532 6.703126 4.976563 14.578126 7.574219 23.207032 7.574219 2.402344 0 4.859375-.199219 7.367187-.605469 11.375-1.832031 19.894531-7.195312 20.828125-7.800781 4.652344-3.015625 5.980469-9.230469 2.964844-13.882812-3.015625-4.652344-9.230469-5.980469-13.886719-2.964844-.054687.035156-5.898437 3.664063-13.097656 4.828125-7.234375 1.167969-12.945313-.480469-17.652344-5.152344 2.273438-8.652344 2-18.292968-.855469-28.804687-1.449218-5.351563-6.960937-8.511719-12.316406-7.058594-5.351562 1.453125-8.511718 6.964844-7.058594 12.316406 2.304688 8.5 2.242188 15.609375-.214843 21.507813-.0625.144531-.125.289062-.1875.4375zm0 0" fill="#607d69"/><path d="m307.292969 54.535156c-16.957031-10.058594-36.445313-4.863281-37.265625-4.636718-5.34375 1.472656-8.484375 7-7.011719 12.34375 1.46875 5.34375 7.003906 8.480468 12.34375 7.015624.117187-.035156 12.148437-3.117187 21.6875 2.542969 5.675781 3.367188 9.59375 9.511719 11.652344 18.257813 1.089843 4.625 5.210937 7.742187 9.765625 7.742187.761718 0 1.53125-.089843 2.304687-.269531 5.398438-1.269531 8.746094-6.675781 7.472657-12.070312-3.355469-14.261719-10.402344-24.667969-20.949219-30.925782zm0 0" fill="#607d69"/><path d="m270.925781 243.816406c-7.152343 12.289063-17.488281 18.871094-30.714843 19.5625-10.625.550782-19.382813-2.875-19.597657-2.964844-5.117187-2.09375-10.960937.34375-13.074219 5.453126-2.121093 5.125.3125 10.996093 5.433594 13.113281 1.179688.488281 11.367188 4.539062 24.851563 4.539062.828125 0 1.671875-.015625 2.527343-.050781 14.332032-.542969 34.285157-6.113281 47.929688-29.554688 2.789062-4.789062 1.164062-10.9375-3.628906-13.726562-4.789063-2.789062-10.9375-1.164062-13.726563 3.628906zm0 0" fill="#607d69"/><path d="m343.617188 302.695312c-2.371094-3.535156-6.808594-5.230468-10.949219-4.113281-4.003907 1.074219-6.96875 4.585938-7.390625 8.707031-.425782 4.164063 1.921875 8.277344 5.699218 10.054688 3.683594 1.730469 8.175782 1.054688 11.148438-1.742188 3.554688-3.339843 4.195312-8.867187 1.492188-12.90625zm0 0" fill="#607d69"/><path d="m222.1875 13.855469c1.59375 3.859375 5.582031 6.390625 9.75 6.191406 4.082031-.199219 7.707031-2.9375 9.019531-6.804687 1.332031-3.910157.0625-8.355469-3.128906-10.980469-3.371094-2.773438-8.308594-3.023438-11.9375-.59375-3.925781 2.628906-5.511719 7.808593-3.703125 12.1875zm0 0" fill="#607d69"/></g><g transform="matrix(0.9044134020805359 0 0 0.9044134020805359 148.86759793758392 320.8198046386242)" id="L1_155" fill="#000000"><path d="m55.143 30.953c-.180728-.9415823-1.0042302-1.6224504-1.963-1.623h-1.931l-.142-.851c-.141662-.8547477-.8150907-1.5225343-1.671-1.657-.19-.03-.382-.05-.571-.076.3274689-1.5288062.0554127-3.1249886-.76-4.459.4308169-1.1175257.3504088-2.3676964-.2200195-3.4208244s-1.5736058-1.8034792-2.7449805-2.0531756c-.7488911-4.0080145-4.2356951-6.9214442-8.313-6.946-.1 0-.189.013-.284.016-.6515045-1.02315288-1.7256011-1.70220088-2.929298-1.85191345-1.2036969-.14971258-2.4114108.24552995-3.293702 1.07791345-1.111462-.72248434-2.4083569-1.1076628-3.734-1.109-2.1359492.00874082-4.1489959 1.00014234-5.458 2.688-1.4534677-.4238352-3.0208066-.1635964-4.2593137.7072106-1.2385071.8708071-2.0137239 2.2576432-2.1066863 3.7687894-1.5266629.641743-2.5200364 2.1359406-2.521 3.792.003134.2870658.0366541.572993.1.853-1.3501124 2.0353266-1.7029006 4.5736359-.959 6.9-.268.037-.542.07-.8.108-.86035287.129809-1.53978521.7979443-1.684 1.656l-.142.854h-1.936c-.9571508.0006578-1.77966295.679377-1.962 1.619l-4.379 22.482c-.17101461.8804657.06089033 1.7912635.6321472 2.4827341.57125686.6914705 1.42193438 1.0910707 2.3188528 1.0892659h20.854c.828 1.366 3.344 2 5.716 2 2.347 0 4.839-.619 5.691-2h20.879c.8967062.0017463 1.7471793-.3977201 2.318396-1.0889483.5712166-.6912283.8032791-1.6017364.632604-2.4820517zm-39.878-10.187c-.811938-.4881877-1.1994384-1.4573229-.9479146-2.3707266.2515237-.9134037 1.08052-1.5475526 2.0279146-1.5512734.6630417-.0019666 1.2870585.313201 1.679.848.2129303.2868843.5627369.4383793.9176511.3974184.3549143-.0409609.6610161-.2681548.803-.596.141984-.3278452.0982792-.7065341-.1146511-.9934184-.6790297-.9075527-1.708075-1.4881143-2.836-1.6.2981423-1.4004791 1.5331428-2.403058 2.965-2.407.1220124.0061884.2435554.0195448.364.04-.0804495.2050145-.150538.413945-.21.626-.1244587.5293486.1968889 1.0611281.7233961 1.1971062.5265073.1359781 1.0651711-.173691 1.2126039-.6971062.1137118-.439513.288408-.8609381.519-1.252.8870486-1.4860588 2.4873452-2.3992674 4.218-2.407.9418914.00417 1.8622497.2821189 2.649.8-.1498789.4211076-.2292778.8640519-.235 1.311 0 .5522847.4477153 1 1 1s1-.4477153 1-1c0-1.161731.941769-2.1035 2.1035-2.1035s2.1035.941769 2.1035 2.1035c0 .5522847.4477153 1 1 1s1-.4477153 1-1c0-.077-.019-.15-.023-.227 2.8633441.1766672 5.2711283 2.2120213 5.922 5.006-.4664661.1358062-.9047548.3542731-1.294.645-.2858125.2143594-.4355547.5649147-.3928203.9196152.0427344.3547006.2714531.6596589.6.8.3285469.1403412.7070078.0947442.9928203-.1196152.7991086-.5916463 1.9029846-.5444616 2.6486913.113217.7457068.6576787.9304614 1.7470062.4433087 2.613783-.217683.382746-.548483.6887447-.947.876-.4179164.2023494-.6415685.6657486-.5399835 1.1188268.1015849.4530783.5016789.776627.9659835.7811732.1466355.0002227.2914783-.0322303.424-.095.2650236-.1284335.515464-.2850007.747-.467.5169232 1.4695642.1927165 3.1040105-.846 4.265l-.024.025c-1.3027747 1.4112776-3.3809864 1.7926906-5.1.936-.1683686-.0889266-.3301196-.1898539-.484-.302.7365719-1.032642.8383019-2.3890425.264-3.52-.1607695-.3192168-.4796268-.5284158-.8364614-.5487937-.3568347-.0203779-.6974349.1511611-.8935.45s-.2178081.6795769-.0570386.9987937c.3288222.6609419.1237272 1.4630251-.482 1.885-.3557078.2368235-.7951482.3117249-1.2092239.2061089s-.7639552-.3818448-.9627761-.7601089c-.1598763-.3195741-.4780989-.5295797-.8347964-.5509098-.3566974-.02133-.6976789.149256-.8945.4475001-.1968211.298244-.21958.6788356-.0597036.9984097.5864681 1.1838838 1.7948213 1.9315427 3.116 1.928.4301201-.0029151.8558543-.086705 1.255-.247.3571725.3127.7506661.5812964 1.172.8 1.4252119.7387529 3.0825117.8919607 4.619.427-.9882273 1.3493456-2.4672193 2.2562069-4.118 2.525-.5135633.083605-.8771992.5470675-.8362143 1.0657749.040985.5187073.4728938.919311.9932143.9212251.0532255-.0000175.1063747-.0040287.159-.012.6089289-.1054158 1.2040242-.279181 1.774-.518.3080574.5446553.5580939 1.1201415.746 1.717.0344142.1042128.0519685.2132519.052.323-.0002519.4322075-.2583895.8225619-.656.992-.4599764.1779113-.9822029.0375453-1.291-.347-.7744533-.9094404-1.7885601-1.5833173-2.927-1.945-2.161-.724-2.995-1.371-3.349-2.075.518862-.0647395 1.0315675-.1717622 1.533-.32.3415459-.1050361.6011113-.384306.6809203-.7326115.0798091-.3483054-.0322631-.7127306-.294-.956s-.6333744-.3284246-.9749203-.2233885c-.5611159.1721511-1.1403319.2785308-1.726.317-1.1283402.0881894-2.2619048-.0828373-3.314-.5-.3950277-.1540605-.8442701-.0422508-1.121.279-1.4559635 1.6724538-3.9478574 1.9567152-5.7430816.6551386-1.7952242-1.3015765-2.2998086-3.7583497-1.1629184-5.6621386.1841704-.307427.1903405-.6897551.0161861-1.0029649s-.5021752-.5097173-.8605-.5155-.6925157.1800378-.8766861.4874649c-.238586.406059-.4304726.8378039-.572 1.287-.7874809-.041431-1.4084206-.6855304-1.421-1.474v-.025c-.0005173-.2638693-.1064589-.5165907-.2942597-.7019501-.1878009-.1853594-.4418868-.2879853-.7057403-.2850499-.5546788.005491-1.0011256.4572951-1 1.012.0044528 1.7734668 1.3418538 3.2598987 3.105 3.451.0035845.3352284.0340151.6696311.091 1-2.2327928.4831347-4.5486183-.3194455-6.0036118-2.0806316-1.4549936-1.7611862-1.8061655-4.1868533-.9103882-6.2883684.2237217.2263432.4734607.425396.744.593.4723969.2767228 1.0794921.1221344 1.3620132-.3468178.2825212-.4689522.1354231-1.0779056-.3300132-1.3661822zm-4.4 8.033c.461-.068.937-.128 1.41-.19 1.8489234 2.9546304 5.3851304 4.389274 8.77 3.558.9094997 1.7261663 2.5714022 2.9299599 4.4950808 3.2559972 1.9236787.3260372 3.8894278-.262919 5.3169192-1.5929972.6795698.202697 1.3795072.3294705 2.087.378.483 1.832 1.879 2.942 4.812 3.925.7906821.2478808 1.4960375.7124592 2.036 1.341.6002998.7138339 1.4833272 1.1286667 2.416 1.135.4079034-.0001344.8115999-.0824381 1.187-.242 1.1335438-.4844411 1.8688883-1.5982775 1.869-2.831.0009195-.3214858-.0504164-.6409841-.152-.946-.2248837-.7065599-.5210757-1.3884046-.884-2.035 1.7004725-1.2224254 2.8850466-3.0340431 3.323-5.082.2129773-.253039.4055794-.5225483.576-.806.335.043.67.081 1.007.137l3.61 21.714c-7.0564939-2.3562987-14.6875061-2.3562987-21.744 0v-12.518c0-.5522847-.4477153-1-1-1s-1 .4477153-1 1v12.522c-7.0556977-2.358461-14.6865688-2.3612685-21.744-.008zm-8.214 25.833c-.18895586-.228251-.2659823-.5290209-.21-.82l4.379-22.482h1.6l-3.138 18.859c-.11037243.6864386.14237999 1.3811045.66806574 1.836115.52568576.4550104 1.24941507.6055441 1.91293426.397885 5.3310039-1.7271415 11.0104532-2.0875013 16.517-1.048l-.298 3.625h-20.652c-.30168092.0002141-.58756596-.1348382-.779-.368zm27.349 2.368c-2.409 0-3.791-.712-3.994-1.029l.344-4.15c1.0995773.2737803 2.1756369.6345846 3.218 1.079.1348035.0649541.2823664.0991122.432.1.1500306-.0002285.2980631-.0344161.433-.1 1.0417263-.447028 2.1174766-.8101815 3.217-1.086l.344 4.156c-.203.318-1.585 1.03-3.994 1.03zm27.349-2.368c-.191434.2331618-.4773191.3682141-.779.368h-20.649l-.3-3.632c5.5095832-1.037362 11.191496-.6739038 16.524 1.057.6633643.2049213 1.3855275.0522508 1.9091961-.4036178.5236686-.4558685.7743775-1.1501113.6628039-1.8353822l-3.135-18.855h1.6l4.38 22.48c.055473.2917534-.0226859.5930135-.213.821z" id="L1_146" fill="#f2d072"/><path d="m26.686 22.685c-.4093551.3703847-.441136 1.0024199-.071 1.412.8483053.9366084 1.9694213 1.5830428 3.205 1.848-.5595777.7885583-1.4670723 1.2564735-2.434 1.255-.5522847 0-1 .4477153-1 1s.4477153 1 1 1c2.070157.0082594 3.9276303-1.2703233 4.659-3.207 2.4865405-.4120764 4.4551291-2.3260373 4.937-4.8.0744538-.3538613-.0479307-.7203513-.3200693-.9584726-.2721387-.2381213-.6516311-.3107736-.9924777-.1900059-.3408465.1207677-.5899418.4161394-.651453.7724785-.1960875 1.031393-.7911685 1.9437787-1.656 2.539-1.6637494 1.1205406-3.8950927.8662081-5.264-.6-.3703847-.4093551-1.0024199-.441136-1.412-.071z" id="L1_147" fill="#f2d072"/><path d="m23.2 21.6c.5522847 0 1-.4477153 1-1 0-.6895629.2739278-1.350883.7615224-1.8384776s1.1489147-.7615224 1.8384776-.7615224c.5522847 0 1-.4477153 1-1s-.4477153-1-1-1c-2.5393675.0027557-4.5972443 2.0606325-4.6 4.6 0 .2652165.1053568.5195704.2928932.7071068s.4418903.2928932.7071068.2928932z" id="L1_148" fill="#f2d072"/><path d="m31 2v-1c0-.55228475-.4477153-1-1-1s-1 .44771525-1 1v1c0 .55228475.4477153 1 1 1s1-.44771525 1-1z" id="L1_149" fill="#f2d072"/><path d="m46.41 7.176-1 1c-.2599566.25107447-.3642126.62287789-.2726972.97250732.0915155.34962944.3645604.6226744.7141899.71418984.3496294.09151544.7214328-.01274058.9725073-.27269716l1-1c.2599566-.25107447.3642126-.62287789.2726972-.97250732-.0915155-.34962944-.3645604-.6226744-.7141899-.71418984-.3496294-.09151544-.7214328.01274058-.9725073.27269716z" id="L1_150" fill="#f2d072"/><path d="m13.883 9.883c.4043959-.00008635.7689341-.2437275.923678-.61734544s.0692299-.80366031-.216678-1.08965456l-1-1c-.2510745-.25995658-.6228779-.3642126-.9725073-.27269716-.3496295.09151544-.6226744.3645604-.7141899.71418984-.0915154.34962943.0127406.72143285.2726972.97250732l1 1c.1874927.18754937.4418052.29294336.707.293z" id="L1_151" fill="#f2d072"/><path d="m21.581 5.675c.1313847-.00028124.2614627-.02609305.383-.076.2451011-.10152817.4398132-.29629087.5412776-.54141839s.1013645-.52052773-.0002776-.76558161l-1.149-2.772c-.1316192-.33762411-.43559-.57762635-.7945371-.62733226-.358947-.04970591-.7166983.09866304-.9351117.38781568s-.2633091.67383911-.1173512 1.00551658l1.148 2.772c.1548963.37359074.5195709.61710177.924.617z" id="L1_152" fill="#f2d072"/><path d="m39.95.979c-.5100349-.21099754-1.0945733.0311428-1.306.541l-1.149 2.772c-.1019555.24516905-.10222.52082095-.0007353.76618523.1014848.24536427.2963859.44029399.5417353.54181477.1215373.04990695.2516153.07571876.383.076.4044291.00010177.7691037-.24340926.924-.617l1.148-2.772c.1019555-.24516905.10222-.52082095.0007353-.76618523-.1014848-.24536427-.2963859-.44029399-.5417353-.54181477z" id="L1_153" fill="#f2d072"/><path d="m50.325 17.582c.1314874-.0002372.2616372-.0264031.383-.077l2.771-1.148c.3301134-.1366541.5622467-.4390411.6089575-.7932547.0467108-.3542137-.0990974-.7064405-.3825-.924-.2834026-.2175596-.6613441-.2673994-.9914575-.1307453l-2.772 1.148c-.4423387.1816955-.6941348.6511321-.6008203 1.1201409.0933144.4690087.5056209.8063148.9838203.8048591z" id="L1_154" fill="#f2d072"/><path d="m9.292 17.505c.51031111.2115251 1.0954749-.0306889 1.307-.541s-.0306889-1.0954749-.541-1.307l-2.772-1.148c-.51031111-.2112489-1.09525108.0311889-1.3065.5415s.03118889 1.0952511.5415 1.3065z" id="Shape" fill="#f2d072"/></g></defs><g fi:class="KUsePattern" opacity="1"><pattern id="pattern_L1_140" width="350" height="350" patternUnits="userSpaceOnUse"><use xlink:href="#L1_140" x="-350" y="-350"/><use xlink:href="#L1_140" x="0" y="-350"/><use xlink:href="#L1_140" x="350" y="-350"/><use xlink:href="#L1_140" x="-350" y="0"/><use xlink:href="#L1_140" x="0" y="0"/><use xlink:href="#L1_140" x="350" y="0"/><use xlink:href="#L1_140" x="-350" y="350"/><use xlink:href="#L1_140" x="0" y="350"/><use xlink:href="#L1_140" x="350" y="350"/></pattern><rect x="0" y="0" width="100%" height="100%" fill="url(#pattern_L1_140)"/></g><g fi:class="KUsePattern"><pattern id="pattern_L1_142" width="350" height="350" patternUnits="userSpaceOnUse"><use xlink:href="#L1_142" x="-350" y="-350"/><use xlink:href="#L1_142" x="0" y="-350"/><use xlink:href="#L1_142" x="350" y="-350"/><use xlink:href="#L1_142" x="-350" y="0"/><use xlink:href="#L1_142" x="0" y="0"/><use xlink:href="#L1_142" x="350" y="0"/><use xlink:href="#L1_142" x="-350" y="350"/><use xlink:href="#L1_142" x="0" y="350"/><use xlink:href="#L1_142" x="350" y="350"/></pattern><rect x="0" y="0" width="100%" height="100%" fill="url(#pattern_L1_142)"/></g><g fi:class="KUsePattern"><pattern id="pattern_L1_143" width="350" height="350" patternUnits="userSpaceOnUse"><use xlink:href="#L1_143" x="-350" y="-350"/><use xlink:href="#L1_143" x="0" y="-350"/><use xlink:href="#L1_143" x="350" y="-350"/><use xlink:href="#L1_143" x="-350" y="0"/><use xlink:href="#L1_143" x="0" y="0"/><use xlink:href="#L1_143" x="350" y="0"/><use xlink:href="#L1_143" x="-350" y="350"/><use xlink:href="#L1_143" x="0" y="350"/><use xlink:href="#L1_143" x="350" y="350"/></pattern><rect x="0" y="0" width="100%" height="100%" fill="url(#pattern_L1_143)"/></g><g fi:class="KUsePattern"><pattern id="pattern_L1_155" width="350" height="350" patternUnits="userSpaceOnUse"><use xlink:href="#L1_155" x="-350" y="-350"/><use xlink:href="#L1_155" x="0" y="-350"/><use xlink:href="#L1_155" x="350" y="-350"/><use xlink:href="#L1_155" x="-350" y="0"/><use xlink:href="#L1_155" x="0" y="0"/><use xlink:href="#L1_155" x="350" y="0"/><use xlink:href="#L1_155" x="-350" y="350"/><use xlink:href="#L1_155" x="0" y="350"/><use xlink:href="#L1_155" x="350" y="350"/></pattern><rect x="0" y="0" width="100%" height="100%" fill="url(#pattern_L1_155)"/></g></svg>